<?xml version="1.0" encoding="utf-8"?>
<!-- Generator: Adobe Illustrator 19.0.0, SVG Export Plug-In . SVG Version: 6.00 Build 0)  -->
<svg version="1.1" id="Camada_1" xmlns="http://www.w3.org/2000/svg" xmlns:xlink="http://www.w3.org/1999/xlink" x="0px" y="0px"
	 viewBox="0 0 212.9 212.9" style="enable-background:new 0 0 212.9 212.9;" xml:space="preserve">
<style type="text/css">
	.st0{fill:#F1F1F2;}
	.st1{fill:none;stroke:#D0D2D3;stroke-width:2;stroke-linecap:round;stroke-miterlimit:10;}
	.st2{fill-rule:evenodd;clip-rule:evenodd;fill:#E6E6E6;}
	.st3{opacity:0.5;}
	.st4{fill-rule:evenodd;clip-rule:evenodd;fill:url(#XMLID_62_);}
	.st5{fill-rule:evenodd;clip-rule:evenodd;fill:url(#XMLID_63_);}
</style>
<g id="XMLID_40_">
	<g>
		<g>
			<path id="XMLID_59_" class="st0" d="M59,141.6c-0.5,1.9-0.8,4.2-0.8,7v5c0,2.8,0.3,5.1,0.8,6.9c0.5,1.7,1.2,3,2.3,4
				c1.1,1,2.6,1.8,4.6,2.3c2.1,0.5,4.8,0.8,8.1,0.8h24.8V163H74.3c-1.8,0-3.2-0.1-4.4-0.4c-1.4-0.3-2.5-0.9-3.4-1.8
				c-0.9-0.9-1.5-2-1.8-3.4c-0.3-1.1-0.4-2.5-0.4-4.1v-4.4c0-1.7,0.1-3.1,0.4-4.2c0.3-1.4,0.9-2.5,1.8-3.4c0.9-0.8,2-1.4,3.4-1.7
				c1.2-0.3,2.6-0.4,4.4-0.4h11h13.4v-4.6H73.9c-3.2,0-6,0.3-8.1,0.8c-1.9,0.5-3.5,1.2-4.6,2.3C60.2,138.6,59.4,139.9,59,141.6z"/>
			<polygon id="XMLID_58_" class="st0" points="130.9,134.5 119.2,134.5 119.2,124.1 112.9,124.1 112.9,134.5 107.7,134.5 
				107.7,138.7 112.9,138.7 112.9,167.5 119.2,167.5 119.2,138.7 130.9,138.7 			"/>
			<path id="XMLID_57_" class="st0" d="M200.9,138.7h4.3v-4.2h-4.6c-3,0-5.5,0.3-7.5,0.8c-1.9,0.5-3.4,1.3-4.5,2.3
				c-1.1,1-1.9,2.3-2.5,3.9c-0.6,1.8-0.9,3.9-0.9,6.5v19.4h6.1v-19.4c0-1.6,0.1-3,0.4-4.2c0.3-1.3,1-2.4,1.8-3.2
				c0.8-0.8,1.9-1.4,3.2-1.7C198,138.8,199.3,138.7,200.9,138.7z"/>
		</g>
		<path class="st0" d="M52.3,161.1c0.5-1.6,0.7-3.6,0.7-6.1v-8.8c0-2.1-0.3-3.9-0.8-5.3c-0.5-1.3-1.2-2.8-2.2-3.7
			c-1.1-0.9-2.5-1.6-4.2-2c-1.9-0.5-4.4-0.7-13.5-0.7H11.5l0,4.2h27.5c2.7,0,5,0.3,6.3,1.4c1.4,1.2,1.9,2.7,1.9,5.6v2.8H18.2
			c-2.3,0-4.2,0.2-5.7,0.6c-1.3,0.3-2.3,0.8-3,1.4c-0.7,0.6-1.1,1.3-1.4,2.1c-0.3,1-0.5,2.1-0.5,3.4v3.4c0,1.2,0.2,2.4,0.5,3.3
			c0.3,0.8,0.8,1.5,1.5,2.1c0.8,0.6,1.9,1.1,3.3,1.5c1.5,0.4,3.5,0.6,6,0.6h19.6c3,0,5.6-0.2,7.6-0.7c1.8-0.4,3.2-1,4.2-1.9
			C51.2,163.6,51.9,162.5,52.3,161.1z M47.1,155.8c0,1.6-0.2,2.8-0.5,3.9c-0.4,1.2-1,2.2-1.8,2.9c-0.8,0.7-1.8,1.2-3,1.4
			c-1,0.2-2.1,0.3-3.4,0.3H19.6c-1.7,0-3.1-0.4-4.2-1.1c-0.9-0.6-1.9-1.8-1.9-4.3v-2.5c0-2.1,0.6-3.6,1.8-4.5c1-0.8,2.4-1.2,4-1.2
			h27.7V155.8z"/>
		<path class="st0" d="M178.8,161.4c0.5-1.6,0.7-3.6,0.7-6.1v-8.8c0-2.1-0.3-3.9-0.8-5.3c-0.5-1.3-1.2-2.8-2.2-3.7
			c-1.1-0.9-2.5-1.6-4.2-2c-1.9-0.5-4.4-0.7-13.5-0.7H138l0,4.2h27.5c2.7,0,5,0.3,6.3,1.4c1.4,1.2,1.9,2.7,1.9,5.6v2.8h-28.8
			c-2.3,0-4.2,0.2-5.7,0.6c-1.3,0.3-2.3,0.8-3,1.4c-0.7,0.6-1.1,1.3-1.4,2.1c-0.3,1-0.5,2.1-0.5,3.4v3.4c0,1.2,0.2,2.4,0.5,3.3
			c0.3,0.8,0.8,1.5,1.5,2.1c0.8,0.6,1.9,1.1,3.3,1.5c1.5,0.4,3.5,0.6,6,0.6H165c3,0,5.6-0.2,7.6-0.7c1.8-0.4,3.2-1,4.2-1.9
			C177.7,163.9,178.4,162.8,178.8,161.4z M173.6,156.1c0,1.6-0.2,2.8-0.5,3.9c-0.4,1.2-1,2.2-1.8,2.9c-0.8,0.7-1.8,1.2-3,1.4
			c-1,0.2-2.1,0.3-3.4,0.3h-18.7c-1.7,0-3.1-0.4-4.2-1.1c-0.9-0.6-1.9-1.8-1.9-4.3v-2.5c0-2.1,0.6-3.6,1.8-4.5c1-0.8,2.4-1.2,4-1.2
			h27.7V156.1z"/>
	</g>
	<line id="XMLID_52_" class="st1" x1="7.7" y1="175.3" x2="205.2" y2="175.3"/>
	<g>
		<path class="st0" d="M22.9,186.5c-0.7-1-1.6-1.7-2.5-2.2c-0.9-0.4-2.1-0.6-3.5-0.6c-2.3,0-4.1,0.6-5.4,1.8c-1.3,1.2-2,2.8-2,4.8
			c0,2,0.6,3.6,1.9,4.8c1.3,1.2,3,1.8,5.2,1.8c1.3,0,2.5-0.2,3.4-0.7c1-0.4,1.8-1.2,2.7-2.2l2.1,1.2c-2.1,2.5-4.8,3.8-8.1,3.8
			c-2.9,0-5.2-0.8-7-2.3c-1.7-1.6-2.6-3.7-2.6-6.3c0-2.7,0.9-4.9,2.7-6.5c1.8-1.6,4.2-2.4,7.1-2.4c3.5,0,6.2,1.3,8.1,3.8L22.9,186.5
			z"/>
		<path class="st0" d="M46.6,196.6c-1.7,1.6-4.1,2.4-7.1,2.4c-3,0-5.3-0.8-7.1-2.3c-1.7-1.6-2.6-3.7-2.6-6.4c0-2.7,0.9-4.8,2.7-6.3
			c1.7-1.5,4-2.2,7-2.2c3,0,5.3,0.7,7,2.2c1.8,1.5,2.7,3.6,2.7,6.3C49.3,192.9,48.4,195,46.6,196.6z M44.9,185.6
			c-1.3-1.1-3-1.6-5.4-1.6c-2.3,0-4.1,0.5-5.3,1.6c-1.2,1.1-1.9,2.7-1.9,4.7c0,2,0.6,3.6,1.9,4.8c1.3,1.2,3,1.7,5.3,1.7
			c2.3,0,4.1-0.6,5.4-1.7c1.3-1.2,1.9-2.8,1.9-4.8C46.8,188.2,46.2,186.6,44.9,185.6z"/>
		<path class="st0" d="M68.7,198.8l-11.6-13.3v13.3h-2.4v-17.1h2.2c1.5,1.8,3.4,4,5.8,6.7c2.9,3.3,4.9,5.4,5.8,6.5v-13.2h2.4v17.1
			H68.7z"/>
		<path class="st0" d="M84.8,199c-2.3,0-4.2-0.4-5.6-1.2c-1.9-1-2.8-2.6-2.8-4.8v-1.1h2.5v1c0,2.5,2,3.8,6,3.8
			c1.4,0,2.6-0.2,3.5-0.6c1.1-0.5,1.6-1.1,1.6-2c0-0.7-0.2-1.1-0.5-1.4c-0.3-0.3-0.9-0.6-1.8-0.8c-0.5-0.1-1.7-0.4-3.6-0.8
			c-2.2-0.4-3.7-0.9-4.5-1.2c-1.7-0.8-2.6-2.1-2.6-3.7c0-3.1,2.4-4.7,7.3-4.7c5.1,0,7.7,2.1,7.7,6.2h-2.4c-0.1-1.8-0.6-2.9-1.6-3.4
			c-0.8-0.4-2.1-0.7-3.8-0.7c-3.3,0-4.9,0.8-4.9,2.5c0,0.8,0.4,1.4,1.2,1.7c0.6,0.3,1.8,0.6,3.4,0.9c3.1,0.5,5.2,1.1,6.3,1.7
			c1.4,0.8,2.1,2.1,2.1,3.7c0,1.7-0.9,3-2.7,3.8C88.3,198.6,86.7,199,84.8,199z"/>
		<path class="st0" d="M111.9,197.4c-1.3,1-3.2,1.5-5.8,1.5c-5.3,0-7.9-2.3-7.9-6.8v-10.5h2.4v10.5c0,1.6,0.4,2.7,1.3,3.5
			c0.9,0.8,2.3,1.1,4.2,1.1c1.9,0,3.3-0.4,4.2-1.1c0.9-0.7,1.3-1.8,1.3-3.4v-10.6h2.4v10.6C114,194.6,113.3,196.3,111.9,197.4z"/>
		<path class="st0" d="M120,198.8v-17.1h2.4v14.9h10.8v2.2H120z"/>
		<path class="st0" d="M145.5,183.9v14.9H143v-14.9h-6.6v-2.2H152v2.2H145.5z"/>
		<path class="st0" d="M156.7,198.8v-17.1h2.4v17.1H156.7z"/>
		<path class="st0" d="M179.1,198.8l-11.6-13.3v13.3h-2.4v-17.1h2.2c1.5,1.8,3.4,4,5.8,6.7c2.9,3.3,4.9,5.4,5.8,6.5v-13.2h2.4v17.1
			H179.1z"/>
		<path id="XMLID_41_" class="st0" d="M197.7,189.8v2.2h5.5c0,1.4-0.7,2.6-1.9,3.4c-1.3,0.9-2.8,1.3-4.6,1.3c-2.4,0-4.2-0.6-5.6-1.7
			c-1.3-1.1-2-2.7-2-4.8c0-2.1,0.6-3.7,1.9-4.8c1.3-1.2,3.1-1.7,5.4-1.7c1.9,0,3.4,0.4,4.4,1.1c0.4,0.3,0.7,0.6,1,1h2.8
			c-0.7-1.4-1.5-2.4-2.7-3c-1.5-0.8-3.3-1.3-5.5-1.3c-3,0-5.3,0.8-7.1,2.4c-1.8,1.6-2.7,3.7-2.7,6.4c0,2.8,0.9,4.9,2.8,6.5
			c1.8,1.5,4.2,2.2,7.2,2.2c2.5,0,4.5-0.6,6.2-1.8c1.9-1.3,2.8-3.2,2.8-5.5c0-0.3-0.1-1-0.2-1.8H197.7z"/>
	</g>
	<g>
		<g id="XMLID_287_">
			<g id="XMLID_293_">
				<path id="XMLID_294_" class="st2" d="M90,35.8l13.6-20.7c0,0,2.1-3.3,4.9,1.1c3.2,5.2,62.9,92.9,66.4,99.9c2,3.9-2,5.5-4.4,5.5
					c-8.1,0-26.3,0.2-26.3,0.2s-3.4,0.5-5.2-2.4c-1.6-2.5-9.3-12.5-10.1-13.7c-0.9-1.4-2.2-2-3.7-2c-4.5,0-22.7,0.1-26,0.1
					c-5.8,0.6-6.5-3.6-5.2-5.6c1.3-2.1,7.9-12.3,8-12.5c2.1-3.8,4.2-3.2,4.2-3.2s2.6-0.1,3.5-0.2c1.8-0.2,2.8-2.1,1.1-4.9
					c-7.5-11.9-18.3-28.7-21.2-32.5C85.9,40.2,90,35.8,90,35.8z"/>
			</g>
			<g id="XMLID_291_">
				<path id="XMLID_292_" class="st2" d="M87.4,50.1c1,1.2,9.3,13.2,13.5,19.6c3.4,5.1,0.2,9.2,0.2,9.2l-24.6,38.4
					c0,0-2.1,4.3-5.9,4.4c-8.1,0.3-29.4,0.1-30.9,0.1c-2,0-4.1-2.1-1.9-5.4c12.3-18.1,39.2-61.6,42.3-65.6
					C83.2,46.9,86,48.3,87.4,50.1z"/>
			</g>
			<g id="XMLID_288_">
				<defs>
					<path id="XMLID_290_" d="M90,35.8l13.6-20.7c0,0,2.1-3.3,4.9,1.1c3.2,5.2,62.9,92.9,66.4,99.9c2,3.9-2,5.5-4.4,5.5
						c-8.1,0-26.3,0.2-26.3,0.2s-3.4,0.5-5.2-2.4c-1.6-2.5-9.3-12.5-10.1-13.7c-0.9-1.4-2.2-2-3.7-2c-4.5,0-22.7,0.1-26,0.1
						c-5.8,0.6-6.5-3.6-5.2-5.6c1.3-2.1,7.9-12.3,8-12.5c2.1-3.8,4.2-3.2,4.2-3.2s2.6-0.1,3.5-0.2c1.8-0.2,2.8-2.1,1.1-4.9
						c-7.5-11.9-18.3-28.7-21.2-32.5C85.9,40.2,90,35.8,90,35.8z"/>
				</defs>
				<use xlink:href="#XMLID_290_"  style="overflow:visible;fill-rule:evenodd;clip-rule:evenodd;fill:#E6E6E6;"/>
				<clipPath id="XMLID_61_">
					<use xlink:href="#XMLID_290_"  style="overflow:visible;"/>
				</clipPath>
			</g>
		</g>
		<g id="XMLID_307_" class="st3">
			<linearGradient id="XMLID_62_" gradientUnits="userSpaceOnUse" x1="70.8218" y1="93.9848" x2="109.9373" y2="133.9916">
				<stop  offset="0" style="stop-color:#FFFFFF"/>
				<stop  offset="0.1046" style="stop-color:#ECECEC"/>
				<stop  offset="0.3161" style="stop-color:#BCBCBC"/>
				<stop  offset="0.6159" style="stop-color:#6E6E6E"/>
				<stop  offset="0.9893" style="stop-color:#030303"/>
				<stop  offset="1" style="stop-color:#000000"/>
			</linearGradient>
			<path id="XMLID_324_" class="st4" d="M101,69.7c-4.3-6.4-12.6-18.3-13.5-19.6c-1.4-1.8-4.2-3.2-7.2,0.6c-3.1,4-30,47.5-42.3,65.6
				c-2.3,3.3-0.1,5.4,1.9,5.4c1.5,0,22.7,0.2,30.9-0.1c3.7-0.1,5.9-4.4,5.9-4.4l24.6-38.4C101.1,78.9,104.4,74.8,101,69.7z"/>
			<linearGradient id="XMLID_63_" gradientUnits="userSpaceOnUse" x1="110.1929" y1="70.1276" x2="173.5548" y2="147.6222">
				<stop  offset="0" style="stop-color:#FFFFFF"/>
				<stop  offset="1" style="stop-color:#000000"/>
			</linearGradient>
			<path id="XMLID_325_" class="st5" d="M174.8,116.1c-3.5-7-63.2-94.7-66.4-99.9c-2.7-4.4-4.9-1.1-4.9-1.1L90,35.8
				c0,0-4.1,4.4-0.6,9c2.9,3.8,13.7,20.6,21.2,32.5c1.7,2.8,0.8,4.6-1.1,4.9c-0.9,0.1-3.5,0.2-3.5,0.2s-2.2-0.5-4.2,3.2
				c-0.1,0.2-6.7,10.4-8,12.5c-1.2,2-0.6,6.3,5.2,5.6c3.3,0,21.5-0.1,26-0.1c1.5,0,2.8,0.6,3.7,2c0.8,1.2,8.5,11.2,10.1,13.7
				c1.8,2.9,5.2,2.4,5.2,2.4s18.1-0.2,26.3-0.2C172.8,121.6,176.8,120,174.8,116.1z"/>
		</g>
	</g>
</g>
</svg>
