<?xml version="1.0" encoding="utf-8"?>
<!-- Generator: Adobe Illustrator 19.0.0, SVG Export Plug-In . SVG Version: 6.00 Build 0)  -->
<svg version="1.1" id="Camada_1" xmlns:sketch="http://www.bohemiancoding.com/sketch/ns"
	 xmlns="http://www.w3.org/2000/svg" xmlns:xlink="http://www.w3.org/1999/xlink" x="0px" y="0px" viewBox="-291.4 390.6 16.4 16.8"
	 style="enable-background:new -291.4 390.6 16.4 16.8;" xml:space="preserve">
<style type="text/css">
	.st0{fill:;}
</style>
<title>search</title>
<description>Created with Sketch (http://www.bohemiancoding.com/sketch)</description>
<path class="st0" d="M-275.8,404.6l-4.2-4.2c0.6-1,1-2.1,1-3.4c0-3.3-2.7-6-6-6s-6,2.7-6,6s2.7,6,6,6c1,0,1.9-0.2,2.7-0.7l4.3,4.3
	c0,0,0.7,0.7,1.4,0l0.7-0.7C-275.1,405.3-275.8,404.6-275.8,404.6z M-285,401c-2.2,0-4-1.8-4-4s1.8-4,4-4s4,1.8,4,4
	S-282.8,401-285,401z"/>
</svg>
