<svg id="Camada_1" data-name="Camada 1" xmlns="http://www.w3.org/2000/svg" viewBox="0 0 425.07 424.17"><defs><style>.cls-1{fill:#fff;}</style></defs><title>Redes Sociais</title><path class="cls-1" d="M234.11,182.17v-0.5l-0.32.5h0.32Z"/><path class="cls-1" d="M212.53-.45C95.15-.45,0,94.71,0,212.08S95.15,424.62,212.53,424.62s212.53-95.15,212.53-212.53S329.91-.45,212.53-0.45ZM158,308.12h-49V160.8h49V308.12ZM133.57,140.69h-0.32c-16.43,0-27.06-11.32-27.06-25.46,0-14.45,11-25.45,27.7-25.45s27.06,11,27.38,25.45C161.27,129.37,150.64,140.69,133.57,140.69ZM334.62,308.12h-49V229.31c0-19.81-7.08-33.32-24.81-33.32-13.52,0-21.58,9.11-25.12,17.92-1.29,3.14-1.61,7.54-1.61,11.95v82.27h-49s0.64-133.5,0-147.32h49v20.86c6.51-10,18.15-24.32,44.13-24.32,32.22,0,56.38,21.06,56.38,66.3v84.47Z"/></svg>