<svg id="Camada_1" data-name="Camada 1" xmlns="http://www.w3.org/2000/svg" viewBox="0 0 425.07 424.17"><defs><style>.cls-1{fill:#fff;}</style></defs><title>Redes Sociais</title><path class="cls-1" d="M212.53-.45C95.15-.45,0,94.71,0,212.08S95.15,424.62,212.53,424.62s212.53-95.15,212.53-212.53S329.91-.45,212.53-0.45Zm103.34,249.3A33.11,33.11,0,0,1,282.76,282H148a33.11,33.11,0,0,1-33.11-33.11v-72A33.11,33.11,0,0,1,148,143.73H282.76a33.11,33.11,0,0,1,33.11,33.11v72Z"/><polygon class="cls-1" points="194.19 240.87 249.03 212.15 194.19 183.43 194.19 240.87"/></svg>