<svg id="Camada_1" data-name="Camada 1" xmlns="http://www.w3.org/2000/svg" viewBox="0 0 425.07 424.17"><defs><style>.cls-1{fill:#fff;}</style></defs><title>Redes Sociais</title><path class="cls-1" d="M212.53-.45C95.15-.45,0,94.71,0,212.08S95.15,424.62,212.53,424.62s212.53-95.15,212.53-212.53S329.91-.45,212.53-0.45Zm99.91,172.19q0.14,3.1.14,6.23c0,63.63-48.43,137-137,137a136.29,136.29,0,0,1-73.81-21.64,97.68,97.68,0,0,0,11.49.67,96.61,96.61,0,0,0,59.8-20.61,48.2,48.2,0,0,1-45-33.44,48.25,48.25,0,0,0,21.75-.83,48.18,48.18,0,0,1-38.62-47.21c0-.2,0-0.4,0-0.61a48,48,0,0,0,21.81,6A48.2,48.2,0,0,1,118.11,133a136.7,136.7,0,0,0,99.25,50.31,48.18,48.18,0,0,1,82.05-43.92A96.4,96.4,0,0,0,330,127.76a48.3,48.3,0,0,1-21.17,26.64,96.25,96.25,0,0,0,27.66-7.58A97.84,97.84,0,0,1,312.44,171.74Z"/></svg>