<?xml version="1.0" encoding="utf-8"?>
<!-- Generator: Adobe Illustrator 19.2.1, SVG Export Plug-In . SVG Version: 6.00 Build 0)  -->
<svg version="1.1" id="Camada_1" xmlns="http://www.w3.org/2000/svg" xmlns:xlink="http://www.w3.org/1999/xlink" x="0px" y="0px"
	 viewBox="0 0 88.4 88.4" style="enable-background:new 0 0 88.4 88.4;" xml:space="preserve">
<style type="text/css">
	.st0{fill:#FFFFFF;}
</style>
<g transform="matrix( 1, 0, 0, 1, 0,0) ">
	<g>
		<g id="a">
			<path class="st0" d="M67,33.5c0-9.3-3.3-17.2-9.8-23.8C50.7,3.3,42.8,0,33.5,0C24.2,0,16.3,3.3,9.8,9.8C3.3,16.3,0,24.2,0,33.5
				c0,9.3,3.3,17.2,9.8,23.7c6.6,6.6,14.5,9.8,23.8,9.8c9.3,0,17.2-3.3,23.7-9.8C63.7,50.7,67,42.8,67,33.5 M52.2,14.7
				c5.2,5.2,7.8,11.5,7.8,18.8c0,7.3-2.6,13.6-7.8,18.7C47.1,57.4,40.8,60,33.5,60c-7.3,0-13.6-2.6-18.8-7.8C9.6,47.1,7,40.8,7,33.5
				c0-7.3,2.6-13.6,7.7-18.8C19.9,9.6,26.2,7,33.5,7C40.8,7,47.1,9.6,52.2,14.7 M83.5,88.4l4.9-4.9L63.5,58.6l-4.9,4.9L83.5,88.4z"
				/>
		</g>
	</g>
</g>
</svg>
